{"title":"Desi Girl Homemade xXx Hindi Scandal With BF@Mastitorrents","uid":5643050,"size":31912554,"categoryP":"porn","categoryS":"movie_clips","magnet":"?xt=urn:btih:99ed12d24f21a7ab46b48dc6009972507c8212dd&amp;dn=Desi+Girl+Homemade+xXx+Hindi+Scandal+With+BF%40Mastitorrents&amp;tr=udp%3A%2F%2Ftracker.openbittorrent.com%3A80&amp;tr=udp%3A%2F%2Fopen.demonii.com%3A1337&amp;tr=udp%3A%2F%2Ftracker.coppersurfer.tk%3A6969&amp;tr=udp%3A%2F%2Fexodus.desync.com%3A6969","seeders":0,"leechers":1,"uploader":"amanrulz","files":2,"time":1277191018,"description":"mastitorrents.com &lt;a href=&quot;\nhttp://mastitorrents.com/forums/index.php&quot; rel=&quot;nofollow&quot; target=&quot;_NEW&quot;&gt;\nhttp://mastitorrents.com/forums/index.php&lt;/a&gt;\n\n\nGeneral\n\nFormat : AVI\nFormat/Info : Audio Video Interleave\nFile size : 30.2 MiB\nDuration : 7mn 7s\nOverall bit rate : 591 Kbps\nWriting application : Lavf52.13.0\n\nVideo\nFormat : S-Mpeg 4 v2\nCodec ID : MP42\nCodec ID/Info : Microsoft MPEG-4 V2\nDuration : 7mn 7s\nBit rate : 482 Kbps\nWidth : 176 pixels\nHeight : 144 pixels\nDisplay aspect ratio : 1.222\nFrame rate : 29.970 fps\nResolution : 24 bits\nBits/(Pixel*Frame) : 0.635\nStream size : 24.6 MiB (81%)\n\nAudio\nID : 1\nFormat : MPEG Audio\nFormat version : Version 1\nFormat profile : Layer 3\nFormat_Settings_Mode : Joint stereo / MS Stereo\nCodec ID : 55\nCodec ID/Hint : MP3\nDuration : 7mn 7s\nBit rate mode : Constant\nBit rate : 96.0 Kbps\nChannel(s) : 2 channels\nSampling rate : 44.1 KHz\nResolution : 16 bits\nStream size : 4.90 MiB (16%)\nAlignment : Aligned on interleaves\nInterleave, duration : 26 ms (0.78 video frame)\n","torrent":{"xt":"urn:btih:99ed12d24f21a7ab46b48dc6009972507c8212dd","amp;dn":"Desi+Girl+Homemade+xXx+Hindi+Scandal+With+BF%40Mastitorrents","amp;tr":["udp%3A%2F%2Ftracker.openbittorrent.com%3A80","udp%3A%2F%2Fopen.demonii.com%3A1337","udp%3A%2F%2Ftracker.coppersurfer.tk%3A6969","udp%3A%2F%2Fexodus.desync.com%3A6969"],"infoHash":"99ed12d24f21a7ab46b48dc6009972507c8212dd","infoHashBuffer":{"type":"Buffer","data":[153,237,18,210,79,33,167,171,70,180,141,198,0,153,114,80,124,130,18,221]},"announce":[],"urlList":[]}}